<svg xmlns="http://www.w3.org/2000/svg" viewBox="0 0 600 600" width="600" height="600" role="img" aria-label="Bolalar krossovkasi">
  <defs>
    <linearGradient id="bg" x1="0" y1="0" x2="0" y2="1">
      <stop offset="0" stop-color="#ffffff"/><stop offset="1" stop-color="#eef1f6"/>
    </linearGradient>
    <linearGradient id="gm" x1="0" y1="0" x2="1" y2="1">
      <stop offset="0" stop-color="#3273cc"/>
      <stop offset="1" stop-color="#245697"/>
    </linearGradient>
  </defs>
  <rect width="600" height="600" fill="url(#bg)"/>
  <ellipse cx="300" cy="530" rx="170" ry="24" fill="#0f172a" opacity="0.07"/>
  <path d="M118 392 L128 300 Q150 288 176 300 L212 338 L300 356 Q372 366 420 392
            Q470 406 478 436 L478 458 Q470 470 440 470 L140 470 Q118 466 116 444 Z" fill="url(#gm)" stroke="#245697" stroke-width="5" stroke-linejoin="round"/>
  <path d="M116 452 L478 452 L478 460 Q470 470 440 470 L140 470 Q118 466 116 452 Z" fill="#245697"/>
  <path d="M186 316 L252 352 M214 300 L276 340 M242 292 L300 332"
      stroke="#245697" stroke-width="7" fill="none" stroke-linecap="round"/>
  <path d="M300 356 Q368 372 420 398" stroke="#245697" stroke-width="6" fill="none"/>
</svg>